<?xml version="1.0" encoding="utf-8"?>
<!-- Generator: Adobe Illustrator 27.5.0, SVG Export Plug-In . SVG Version: 6.00 Build 0)  -->
<svg version="1.1" xmlns="http://www.w3.org/2000/svg" xmlns:xlink="http://www.w3.org/1999/xlink" x="0px" y="0px"
	 viewBox="0 0 500 500" style="enable-background:new 0 0 500 500;" xml:space="preserve">
<g id="BACKGROUND">
	<rect style="fill:#FFFFFF;" width="500" height="500"/>
</g>
<g id="OBJECTS">
	<g>
		<defs>
			<path id="SVGID_1_" d="M180.29,447.765c0,0-99.613-6.865-133.161-59.433s-1.548-102.116,14.452-124.826
				c16-22.71,22.194-41.226,20.645-72.742S107,88.345,164.29,58.765c57.29-29.581,124.787-16.161,126.91,24.613
				c2.123,40.774,12.667,86.463,68.04,98.457c55.373,11.995,122.986,32.399,104.405,91.1
				c-18.581,58.701-29.936,74.701-30.968,109.798C431.645,417.829,373.323,463.765,180.29,447.765z"/>
		</defs>
		<use xlink:href="#SVGID_1_"  style="overflow:visible;fill:#D5CCFA;"/>
		<clipPath id="SVGID_00000167373948998563003170000006567340335696277654_">
			<use xlink:href="#SVGID_1_"  style="overflow:visible;"/>
		</clipPath>
		<g style="clip-path:url(#SVGID_00000167373948998563003170000006567340335696277654_);">
			<g>
				<polygon style="fill:#EDE9FD;" points="150.581,453.442 416.5,414.549 379.516,472.539 				"/>
				<polygon style="fill:#EDE9FD;" points="330.447,114.079 126.484,228.345 423.903,185.281 332.55,115.952 				"/>
				<polygon style="fill:#EDE9FD;" points="68.528,155.868 307.825,61.7 209.145,29.184 94.55,80.281 				"/>
				<path style="fill:#EDE9FD;" d="M475.263,382.033l21.237-64.849L250,332.924l74.874-76.633L-3.968,323.765
					c2.479,15.651,17.264,44.929,34.101,74.415L475.263,382.033z"/>
			</g>
		</g>
		<g style="clip-path:url(#SVGID_00000167373948998563003170000006567340335696277654_);">
			<g>
				<rect x="250.119" y="42.604" style="fill:#F8B042;" width="1.083" height="29.34"/>
				<path style="fill:#F8B042;" d="M250.661,70.198l-9.501,44.851c0,0,3.074,1.395,9.501,1.395c6.427,0,9.501-1.395,9.501-1.395
					L250.661,70.198z"/>
			</g>
			<g>
				<rect x="275.409" y="55.039" style="fill:#F8B042;" width="1.083" height="34.743"/>
				<path style="fill:#F8B042;" d="M275.951,88.035l-9.501,44.851c0,0,3.074,1.395,9.501,1.395c6.427,0,9.501-1.395,9.501-1.395
					L275.951,88.035z"/>
			</g>
		</g>
		<g style="clip-path:url(#SVGID_00000167373948998563003170000006567340335696277654_);">
			<path style="fill:#A281DE;" d="M166.561,450.846l18.562,11.044c7.388-2.975,14.355-7.767,19.583-15.317l-21.869-12.011
				l23.938,8.72c1.54-2.717,2.875-5.742,3.96-9.106c0.826-2.561,1.447-5.259,1.89-8.064l-31.868-10.697l32.533,4.762
				c0.548-7.701-0.009-15.99-1.217-24.33l-28.544,3.856l27.706-9.095c-1.303-7.446-3.046-14.84-4.904-21.798l-15.721,7.797
				l14.379-12.685c-4.121-14.643-8.412-26.785-9.503-32.445c-4.174,2.968-13.71,7.896-24.968,14.393l2.022,23.497l-7.39-20.352
				c-6.265,3.734-12.861,7.901-19.231,12.441l15.796,29.508l-20.703-25.896c-7.043,5.36-13.61,11.179-18.89,17.373l30.75,21.802
				l-34.954-16.382c-1.686,2.411-3.159,4.871-4.37,7.377c-1.512,3.128-2.619,6.185-3.381,9.165l27.98,12.253l-28.884-7.68
				c-1.315,9.207,0.609,17.587,4.091,24.891l25.324,5.806l-22.274-0.255c9.82,15.778,25.714,25.27,25.714,25.27
				s19.458,4.43,38.112-1.095L166.561,450.846z"/>
			<path style="fill:#A281DE;" d="M432.802,404.483l21.531-1.711c4.311-6.697,7.229-14.634,7.133-23.817l-24.789,2.833l24.576-6.714
				c-0.313-3.108-0.971-6.348-2.03-9.72c-0.806-2.568-1.858-5.129-3.117-7.673l-32.191,9.683l29.304-14.911
				c-4.002-6.602-9.247-13.045-15.052-19.154l-21.069,19.64l17.358-23.432c-5.366-5.324-11.061-10.352-16.598-14.958l-8.326,15.447
				l4.407-18.661c-11.824-9.571-22.342-17.001-26.503-20.99c-1.691,4.834-6.628,14.366-12.062,26.174l15.227,18.01l-17.791-12.341
				c-2.956,6.667-5.932,13.879-8.508,21.266l29.943,14.956l-31.86-9.173c-2.651,8.444-4.649,16.988-5.379,25.094l37.694,0.027
				l-37.994,6.827c0.017,2.942,0.237,5.801,0.696,8.546c0.573,3.427,1.436,6.561,2.536,9.434l29.917-6.166l-28.012,10.422
				c4.247,8.274,10.659,14.002,17.721,17.951l24.023-9.893l-18.327,12.663c17.131,7.204,35.589,5.767,35.589,5.767
				s18.441-7.628,30.473-22.915L432.802,404.483z"/>
		</g>
	</g>
	<g>
		<defs>
			<path id="SVGID_00000044898944763172207920000000343879859375213729_" d="M409.087,195.476v-40.922
				c0,0-36.797-19.048-47.137-19.18c-6.823-0.087-22.833,20.306-32.938,34.192c-29.346-19.437-36.153-54.314-37.812-86.189
				c-2.123-40.774-69.619-54.194-126.91-24.613c-44.574,23.015-70.399,71.042-78.939,106.073l-50.61,77.117l20.229,31.309
				c-16.382,25.421-37.185,69.089-7.842,115.068c33.548,52.567,133.161,59.433,133.161,59.433
				c193.032,16,251.355-29.935,252.387-65.032c1.032-35.097,12.387-51.097,30.968-109.798
				C476.724,231.613,447.093,209.269,409.087,195.476z"/>
		</defs>
		<clipPath id="SVGID_00000108301350659684053190000012433400488705840514_">
			<use xlink:href="#SVGID_00000044898944763172207920000000343879859375213729_"  style="overflow:visible;"/>
		</clipPath>
		<g style="clip-path:url(#SVGID_00000108301350659684053190000012433400488705840514_);">
			<path style="fill:#0E1527;" d="M320.935,368.539c0,0-8.077,88.774,2.542,111.742l-36.348-7.742l-8.609-105.806L320.935,368.539z"
				/>
			<g>
				<path style="fill:#3919A4;" d="M355.52,372.665h-69.17l4.85,18.27l0.02,0.06l22.49,84.64c-1.51,0.04-3.04,0.12-4.57,0.23
					c-4.52,0.33-9.07,0.94-13.36,1.68c-13.3,2.31-24.13,5.83-24.13,5.83l-18.07-122.32c0,0,2.31-8.45,5-14.42h0.01
					c1.33-2.94,2.74-5.29,4.02-5.71c3.01-1,43.27-5.82,61.06-7.92c5.11-0.6,8.36-0.98,8.36-0.98s39.93-15.44,55.38,0.9
					c2.26,2.38,3.99,5.42,5.01,9.29C400.42,372.665,355.52,372.665,355.52,372.665z"/>
				<polygon style="fill:#0E1527;" points="295.258,356.023 333.323,345.184 333.323,348.797 				"/>
				<path style="fill:#FFFFFF;" d="M327,332.925l-63.1,9.03l-5.31,4.68c1.33-2.94,2.74-5.29,4.02-5.71c3.01-1,43.27-5.82,61.06-7.92
					L327,332.925z"/>
				<path style="fill:#0E1527;" d="M355.52,372.665h-69.17l27.36,102.97c-5.99,0.16-12.19,0.92-17.93,1.91
					c-2.85-19.63-14.07-104.1-14.07-104.1l-14.19-9.03c0,0,65.29-11.36,68.9-14.2c3.61-2.84,0-17.29,0-17.29h50.99
					c2.26,2.38,3.99,5.42,5.01,9.29C400.42,372.665,355.52,372.665,355.52,372.665z"/>
				<path style="fill:#023256;" d="M313.71,475.635c-1.51,0.04-3.04,0.12-4.57,0.23c-3.86-18.02-17.94-84.93-17.94-84.93l0.02,0.06
					L313.71,475.635z"/>
			</g>
			<g>
				<path style="fill:#FFE0E6;" d="M392.42,342.215c0,0-30.45,14.97-60.39-10.19l8.39-32.72c0,0-17.68-47.15-17.42-49.6
					c0.26-2.46,10.77-27.21,18.45-33.08c0,0,2.56-1.09,6.26-2.33c3.63-1.23,8.37-2.61,12.87-3.26c0.87-0.13,1.74-0.23,2.58-0.3
					c9.65-0.78,25.52,5.89,25.52,5.89l-5.42,68.69L392.42,342.215z"/>
				<path style="fill:#E3679D;" d="M340.42,299.305l-3.132,12.213c3.892-3.234,8.292-7.495,8.292-7.495l9.398,25.161l-11.72-10.452
					l-3.084,19.19c27.074,16.663,52.246,4.292,52.246,4.292l-9.16-56.9l2.276-28.849c-7.889-18.529-19.307-43.302-22.381-39.251
					c-4.827,6.362-8.177,20.033-8.177,20.033s-3.135-9.199-4.366-12.193c-2.903-7.064-4.828-7.84-4.828-7.84
					c-2.921,3.251-9.107,14.614-14.526,24.678c-5.419,10.064-8.258,7.811-8.258,7.811l0.021,0.309
					C323.705,254.727,340.42,299.305,340.42,299.305z"/>
			</g>
			<g>
				<path style="fill:#FEAFAB;" d="M360.58,211.035c-4.5,0.65-9.24,2.03-12.87,3.26c1.14-2.37,2.02-5.23,2.68-7.85
					c1.03-4.12,1.49-7.62,1.49-7.62l6.12-3.48c0,0,2.78,1.84,3.95,4.07C362.99,201.405,361,209.415,360.58,211.035z"/>
				<path style="fill:#FB7880;" d="M361.95,199.415c0,0-8.24,5.62-11.56,7.03c1.03-4.12,1.49-7.62,1.49-7.62l6.12-3.48
					C358,195.345,360.78,197.185,361.95,199.415z"/>
				<path style="fill:#461930;" d="M351.774,159.732c0,0-2.032-4.118,1.064-7.527s9.29-6.409,14.419-5.248
					c5.129,1.161-9.419,12.194-9.419,12.194L351.774,159.732z"/>
				<path style="fill:#FEAFAB;" d="M376.16,174.735c-2.51,13.74-15.87,23.61-15.87,23.61s-7.39,1.87-12.93,2.83
					c-2.63,0.46-4.84,0.71-5.65,0.46c-2.52-0.77-3.87-6.77-3.87-6.77c-2.32-8.13-0.78-17.23-0.78-17.23
					c1.45-0.06,2.74-0.61,3.87-1.47c2.49-1.88,4.12-5.28,4.65-8.21c0.77-4.25,7.42-11.19,7.42-11.19s12.32-5.26,16.58-4.48
					C373.84,153.055,378.68,160.995,376.16,174.735z"/>
				<path style="fill:#4098D1;" d="M349.84,189.735c0,0-0.04,6.75-2.48,11.44c-2.63,0.46-4.84,0.71-5.65,0.46
					c-2.52-0.77-3.87-6.77-3.87-6.77c-2.32-8.13-0.78-17.23-0.78-17.23c1.45-0.06,2.74-0.61,3.87-1.47
					c0.73,1.96,2.49,5.87,5.42,7.08C346.35,183.245,342.97,189.825,349.84,189.735z"/>
				<path style="fill:#4098D1;" d="M345.645,183.7c0,0,9.484-7.732,12.452-8.543c0,0-3.677,0.156-12.903,8.156L345.645,183.7z"/>
				<path style="fill:#4098D1;" d="M349.84,189.735c0,0,6.128-3.063,8.257-5.258l0.839-0.776c0,0-1.6,3.097-9.639,7.226
					L349.84,189.735z"/>
				<path style="fill:#461930;" d="M408.48,277.115c-3.67,14.71-27.87,24.59-34.06,21.68c-1.51-0.71-3.19-1.63-4.88-2.78l-0.01-0.01
					c-5.25-3.57-10.64-9.33-11.37-17.53c-0.97-10.84,5.61-22.45,2.32-32.71c-3.29-10.26-4.64-23.23-1.35-31.35
					c3.29-8.13,0.19-15.1-1.36-21.88c-1.01-4.44,0.38-8.45,1.47-10.7c-1.12-2.62-1.79-5.17-1.79-5.17s-3.81-4.29-4.92-10.82
					c-0.46-2.7-0.45-5.77,0.47-9.08c3.12-11.19,14.01-11.95,21.1-10.09h0.01c0.08,0.02,0.16,0.04,0.24,0.06
					c3.91,1.06,8.87,5.06,12.86,9.45c3.27,3.58,5.89,7.43,6.76,10.16c0.04,0.15,0.07,0.31,0.11,0.47c0.13,0.17,0.24,0.37,0.29,0.6
					c1.37,5.64,0.18,16.61,4.24,22.8c4.07,6.2,4.26,11.03,2.52,18.78c-1.74,7.74,2.9,15.09,7.35,22.64
					C412.94,239.185,412.16,262.415,408.48,277.115z"/>
				<path style="fill:#221A2F;" d="M408.48,277.115c-3.67,14.71-27.87,24.59-34.06,21.68c-1.51-0.71-3.19-1.63-4.88-2.78l-0.01-0.01
					c-3.27-3.69-6.76-9.15-6.34-15.32c0.78-11.31,4.65-12.47,6-22.15c1.36-9.67,0.58-15.48-1.93-23.8
					c-2.52-8.32-4.45-12.39-1.94-18.39c2.44-5.81,5.97-11.03,6.19-11.35c-0.18,0.47-3.63,9.4-2.32,16.19
					c1.22,6.25,4.77,8.76,5.49,9.21c-0.77-0.53-4.63-3.79-2-14.63c2.9-12,7-11.23,4.17-21.68c-2.82-10.45-7.79-10.58-8.5-20
					c-0.7-9.42,2.787-23.039,9.747-21.879c2.48,0.41,6.197,1.012,9.113,3.979c3.27,3.58,5.89,7.43,6.76,10.16
					c0.04,0.15,0.07,0.31,0.11,0.47c0.13,0.17,0.24,0.37,0.29,0.6c1.37,5.64,0.18,16.61,4.24,22.8c4.07,6.2,4.26,11.03,2.52,18.78
					c-1.74,7.74,2.9,15.09,7.35,22.64C412.94,239.185,412.16,262.415,408.48,277.115z"/>
				<path style="fill:#FEAFAB;" d="M355.258,178.7c0,0,1.935-5.613,5.516-2.71c3.581,2.903,0.29,9.097-6.29,9.29L355.258,178.7z"/>
				<path style="fill:#461930;" d="M356.032,174.087c0,0-1.677,9.936-5.419,12.903c0,0,5.548-4.516,7.226-12.645L356.032,174.087z"
					/>
				<path style="fill:#221A2F;" d="M349.461,172.947c-0.502,1.063-1.28,1.75-1.74,1.534c-0.459-0.217-0.425-1.254,0.076-2.318
					c0.501-1.063,1.28-1.75,1.74-1.534C349.996,170.846,349.962,171.883,349.461,172.947z"/>
				<path style="fill:#221A2F;" d="M352.037,166.596c-0.289-0.38-0.755-0.609-1.217-0.699c-0.251-0.049-0.51-0.064-0.765-0.032
					c-0.248,0.031-0.527,0.11-0.729,0.259c-0.058,0.043-0.023,0.125,0.048,0.114c0.113-0.018,0.222-0.04,0.334-0.061
					c0.127-0.025,0.241-0.019,0.368-0.02c0.234-0.001,0.464,0.033,0.687,0.105c0.382,0.124,0.849,0.402,0.995,0.8
					c0.04,0.109,0.057,0.255,0.167,0.319c0.113,0.066,0.257,0.018,0.308-0.104C352.328,167.048,352.173,166.774,352.037,166.596z"/>
				<path style="fill:#FFFFFF;" d="M374.1,146.675c-4.92-0.21-12.01,0.13-15.74,3.28c-6.08,5.13-5.83,15.89-5.83,15.89
					c-0.46-2.7-0.45-5.77,0.47-9.08C356.12,145.575,367.01,144.815,374.1,146.675z"/>
				<path style="fill:#FFFFFF;" d="M357.145,154.99c0,0,1.742-5.129,8.032-6.145C365.177,148.845,358.548,148.361,357.145,154.99z"
					/>
			</g>
			<g>
				<path style="fill:#FEAFAB;" d="M281.71,287.115c0,0-2.21,3.46-4.4,4.87c-0.71,0.46-1.41,0.7-2.04,0.55
					c-2.29-0.55-27.13-1.44-32.71-1.63c-0.71-0.03-1.11-0.04-1.11-0.04s9.42-9.04,12.9-10.97c3.49-1.94,25.6,2.15,25.6,2.15
					L281.71,287.115z"/>
				<path style="fill:#FB7880;" d="M278.52,286.795l-1.21,5.19c-0.71,0.46-1.41,0.7-2.04,0.55c-2.29-0.55-27.13-1.44-32.71-1.63
					c2.88-2.54,8.87-7.06,13.6-6.91C262.55,284.185,278.52,286.795,278.52,286.795z"/>
				<path style="fill:#FFE0E6;" d="M343.52,299.035c0,0-5.3,6.7-9.36,6.74c-4.07,0.03-58.89-13.24-58.89-13.24s0.64-7.56,4.68-10.49
					l3.15,0.38l46.65,5.58c0,0-4.88-35.79,0.2-56.75c0.01-0.01,0.01-0.03,0.01-0.04c1.19-4.89,2.92-8.97,5.39-11.59
					c0,0,3.44-5.25,10.43-2.41C352.78,220.055,345.67,284.815,343.52,299.035z"/>
				<path style="fill:#E3679D;" d="M293.839,296.152c0,0,49.42,1.992,48,3.742c-1.42,1.75-6.87,5.298-6.87,5.298L293.839,296.152z"
					/>
				<path style="fill:#FFFFFF;" d="M283.1,282.425l46.65,5.58c0,0-4.88-35.79,0.2-56.75c-3.6,26.41,2.6,59.09,2.6,59.09
					L283.1,282.425z"/>
				<path style="fill:#FFFFFF;" d="M336.178,229.361c0,0.668-0.541,1.209-1.209,1.209c-0.668,0-1.209-0.542-1.209-1.209
					c0-0.668,0.541-1.209,1.209-1.209C335.636,228.152,336.178,228.693,336.178,229.361z"/>
				<circle style="fill:#FFFFFF;" cx="336.815" cy="234.191" r="0.637"/>
			</g>
		</g>
		<g style="clip-path:url(#SVGID_00000108301350659684053190000012433400488705840514_);">
			<path style="fill:#C9A773;" d="M414.498,504.736c-0.934,0-1.768-0.656-1.959-1.607c-0.129-0.641-12.896-64.301-16.982-87.797
				c-3.69-21.224-11.835-34.408-21.255-34.408c-9.436,0-16.134,4.668-21.719,15.136c-5.907,11.072-34.757,102.734-35.047,103.658
				c-0.331,1.055-1.458,1.637-2.508,1.309c-1.054-0.332-1.64-1.454-1.309-2.508c1.191-3.79,29.253-92.944,35.334-104.342
				c6.28-11.771,14.303-17.253,25.248-17.253c11.669,0,21.088,14.102,25.196,37.723c4.077,23.445,16.834,87.056,16.962,87.695
				c0.217,1.083-0.484,2.137-1.567,2.354C414.761,504.724,414.628,504.736,414.498,504.736z"/>
			<polygon style="fill:#F8EAD5;" points="441.25,251.985 440.8,253.635 406.58,378.925 346.64,378.925 381.09,252.745 
				381.3,251.985 			"/>
			<g>
				<path style="fill:#FFFFFF;" d="M365.063,504.736c-0.934,0-1.769-0.656-1.959-1.607c-0.129-0.641-12.894-64.301-16.981-87.797
					c-3.691-21.224-11.835-34.408-21.255-34.408c-9.435,0-16.133,4.668-21.719,15.136c-5.906,11.072-34.756,102.734-35.046,103.658
					c-0.331,1.055-1.459,1.637-2.508,1.309c-1.054-0.332-1.64-1.454-1.309-2.508c1.191-3.79,29.253-92.944,35.333-104.342
					c6.281-11.771,14.304-17.253,25.248-17.253c11.669,0,21.088,14.102,25.196,37.723c4.078,23.445,16.834,87.056,16.962,87.695
					c0.217,1.083-0.484,2.137-1.567,2.354C365.325,504.724,365.192,504.736,365.063,504.736z"/>
			</g>
			<polygon style="fill:#FFFFFF;" points="441.25,251.985 381.303,251.985 381.301,251.984 381.3,251.985 381.3,251.985 
				381.09,252.745 381.093,252.745 348.348,372.665 280.935,372.665 280.935,378.926 353.129,378.926 387.34,253.635 440.8,253.635 
							"/>
		</g>
		<g style="clip-path:url(#SVGID_00000108301350659684053190000012433400488705840514_);">
			<g>
				<path style="fill:#FF5748;" d="M182.85,199.765c0,0-0.88-10.06-13.79-6.65c0,0-0.24-0.87-0.63-2.35
					c-1.49-5.67-5.23-20.33-6.72-30.34c-0.69-4.57-0.91-8.16-0.23-9.5c2.55-5.03,13.54-8.13,17.92-4.26
					C179.4,146.665,185.42,186.475,182.85,199.765z"/>
				<path style="fill:#281C32;" d="M180.28,190.765h-11.85c-1.49-5.67-5.23-20.33-6.72-30.34l15.85,1.15
					C177.45,161.955,180.28,190.765,180.28,190.765z"/>
				<path style="fill:#FFFFFF;" d="M188.42,192.365l-5.57,7.4c0,0-4.11-6.32-13.79-6.65l-2.36-7.58
					C166.7,185.535,178.35,184.005,188.42,192.365z"/>
			</g>
			<g>
				<g>
					<path style="fill:#F8B042;" d="M58.11,248.159c-2.374,0-4.995-0.66-7.147-2.855c-2.571-2.622-3.257-5.945-1.749-8.466
						c1.361-2.274,4.071-3.214,6.903-2.388c5.636,1.639,10.257,9.316,10.451,9.643l-1.719,1.023
						c-0.043-0.073-4.414-7.327-9.29-8.746c-1.932-0.562-3.748,0.025-4.628,1.495c-0.817,1.366-0.863,3.669,1.46,6.039
						c4.27,4.355,11.36,0.996,11.43,0.962l0.875,1.798C64.494,246.763,61.563,248.159,58.11,248.159z"/>
					<path style="fill:#F8B042;" d="M64.064,245.437c-0.52-0.477-12.664-11.748-7.271-18.308c1.738-2.114,3.408-2.117,4.503-1.75
						c4.073,1.37,6.925,10.626,7.231,18.417l-1.998,0.079c-0.3-7.619-3.153-15.687-5.871-16.601c-0.27-0.09-1.093-0.368-2.32,1.125
						c-3.483,4.237,3.928,12.671,7.078,15.564L64.064,245.437z"/>
				</g>
				<g>
					<path style="fill:#0F0700;" d="M107,438.732l24.258,2.098c0,0,5.161-37.711,3.871-48.292
						c-1.29-10.581-24.258-1.604-24.258-1.604L107,438.732z"/>
					<g>
						<path style="fill:#261100;" d="M119.32,389.575c-0.58,11.8-6.38,54.77-6.38,54.77l-1.13-0.23l-1.27-0.26l-35.8-7.25
							c0,0,4.13-48.19,4.32-54.39c0.2-6.19-4.32-67.16-4.32-67.16l-0.01-0.02c-0.34-0.82-11.36-27.24-12.5-37.31
							c-1.17-10.23,1.16-31.96,1.16-31.96l18.45,1.25l24.51,1.65C106.35,248.665,119.9,377.765,119.32,389.575z"/>
						<path style="fill:#0F0700;" d="M97.26,381.825l-21.49-76.64l-1.03,9.87l-0.01-0.02c-0.34-0.82-11.36-27.24-12.5-37.31
							c-1.17-10.23,1.16-31.96,1.16-31.96l18.45,1.25c4.54,4.72,9.42,9.84,13.87,14.62C109.26,276.155,97.26,381.825,97.26,381.825z
							"/>
						<polygon style="fill:#0F0700;" points="116.42,408.534 111.81,444.115 110.54,443.854 94.55,412.604 						"/>
					</g>
					<g>
						<path style="fill:#F8D9A9;" d="M151.45,406.604c-17.61,13.16-56.9,6-56.9,6s-1.36-20.71-1.16-30.39
							c0.16-8.23-2.47-43.98-5.16-64.33c-0.48-3.6-0.96-6.72-1.42-9.12c-3.1-15.97-15.87-41.32-17.62-48.29
							c-1.74-6.97-5.8-14.71-5.8-14.71l1.35-2.71l37.34,4.72l31.57,3.99c0,0,1.75,5.35,4.19,13.1c5.08,16.13,13.14,42.66,14.58,52.9
							c0.61,4.39,0.87,12.01,0.9,21C153.42,366.265,151.45,406.604,151.45,406.604z"/>
						<path style="fill:#F8B042;" d="M137.84,264.865c-22.32-0.63-39.36-16.71-39.36-16.71l3.6-0.38l31.57,3.99
							C133.65,251.765,135.4,257.115,137.84,264.865z"/>
						<polygon style="fill:#F8B042;" points="90.355,272.935 105.064,287.248 110.355,286.087 						"/>
						<path style="fill:#F8B042;" d="M151.45,406.604c-17.61,13.16-56.9,6-56.9,6s-1.36-20.71-1.16-30.39
							c0.16-8.23-2.47-43.98-5.16-64.33c0.83-25.89-13.49-51.54-13.49-51.54l26.58,24l41.55,3.42l10.45,45
							C153.42,366.265,151.45,406.604,151.45,406.604z"/>
						<path style="fill:#FFFFFF;" d="M133.785,270.624c0.376,0.782,0.046,1.721-0.736,2.096c-0.782,0.376-1.721,0.046-2.097-0.736
							c-0.376-0.782-0.046-1.721,0.736-2.097C132.47,269.512,133.409,269.841,133.785,270.624z"/>
						<path style="fill:#FFFFFF;" d="M130.99,276.448c0.223,0.464,0.027,1.021-0.437,1.244c-0.464,0.223-1.021,0.027-1.244-0.437
							s-0.027-1.021,0.437-1.244S130.767,275.984,130.99,276.448z"/>
					</g>
				</g>
			</g>
			<g>
				<path style="fill:#FF5748;" d="M178.06,166.215c-0.76,3.18-3.32,7.75-6.72,12.78c-0.01,0.02-0.02,0.04-0.02,0.05
					c-4.26,6.31-9.82,13.36-14.81,19.37c-6.73,8.12-12.41,14.35-12.41,14.35l-10.45,39c-10.24,2.17-25.14,0.64-38.47-1.7
					c-16.41-2.89-30.44-7.01-30.44-7.01c3.52-18.52,26.62-70.09,37.5-88.5c1.95-3.33,3.52-5.57,4.5-6.34
					c3.95-3.11,19.08-7.28,30.05-10.02c6.77-1.68,11.95-2.82,11.95-2.82l2.17,0.58l17.07,4.55l9.26,2.46l0.37,0.1l0.45,0.12
					C178.06,143.184,181.06,153.635,178.06,166.215z"/>
				<path style="fill:#281C32;" d="M170.34,166.734c-3.95,1.25-14.24-6.42-14.24-6.42l6.63-17.25l5.25-2.56l9.26,2.46
					c0.47,2.03,0.9,4.49,1.13,7.28C179.01,158.245,174.3,165.484,170.34,166.734z"/>
				<path style="fill:#FFFFFF;" d="M178.06,166.215c-0.76,3.18-3.32,7.75-6.72,12.78c0.54-1,6.32-11.92,6.72-18.57
					c0.36-6.02-0.27-15-0.45-17.36l0.45,0.12C178.06,143.184,181.06,153.635,178.06,166.215z"/>
				<path style="fill:#281C32;" d="M156.097,160.313c0,0-8.47-6.636-9.171-12.882c0,0,10.009-3.044,11.558,0
					C160.032,150.474,158.008,156.498,156.097,160.313z"/>
				<path style="fill:#281C32;" d="M161.71,184.025l-5.2,14.39c-6.73,8.12-12.41,14.35-12.41,14.35l-10.45,39
					c-10.24,2.17-25.14,0.64-38.47-1.7l-9.99-29.27l10.46,5.29l-1.81-48.15l-3.87,4.02l12.27-27.4l24.24,6.44
					c0,0,3.62,32.45,4.26,34.51C131.39,197.575,161.71,184.025,161.71,184.025z"/>
				<g>
					<g>
						<path style="fill:#281C32;" d="M119.645,231.692c-0.047,0-0.096-0.009-0.142-0.028c-0.192-0.079-0.283-0.298-0.205-0.489
							c0.222-0.542,5.457-13.3,7.743-17.026c2.267-3.694,15.501-26.853,15.634-27.086l11.537-23.848
							c0.09-0.186,0.316-0.263,0.501-0.174c0.187,0.09,0.265,0.314,0.174,0.501l-11.548,23.871
							c-0.145,0.256-13.385,23.426-15.657,27.13c-2.254,3.673-7.634,16.786-7.688,16.917
							C119.933,231.604,119.792,231.692,119.645,231.692z"/>
					</g>
				</g>
				<path style="fill:#FFFFFF;" d="M156.097,160.313c0,0,7.988-5.71,12.123-6.484c4.135-0.774-4.265-6.871-4.265-6.871
					L156.097,160.313z"/>
				<path style="fill:#FB7880;" d="M157.076,151.525c0,0,1.246,5.594-0.979,8.787l6.332-8.526l-3.913-2.99L157.076,151.525z"/>
				<path style="fill:#FFFFFF;" d="M157.076,151.525c0,0-9.6-2.701-13.939,6.299c0,0-6.515-12.023-6.359-19.622
					c0,0,5.302-6.979,12.829-5.531L157.076,151.525z"/>
			</g>
			<g>
				<g>
					<path style="fill:#241A1F;" d="M161.03,213.785c-8.93,16.38-20.82,27.12-26.56,23.99c-0.08-0.04-0.16-0.09-0.24-0.15
						c-5.41-3.43-2.77-19.02,6.04-35.16c8.93-16.38,20.82-27.12,26.56-23.99c0.57,0.31,1.05,0.74,1.45,1.29
						C171.98,184.734,169.08,199.035,161.03,213.785z"/>
					<path style="fill:#543E48;" d="M161.03,213.785c-8.93,16.38-20.82,27.12-26.56,23.99c-0.08-0.04-0.16-0.09-0.24-0.15
						c-3.7-4.97-0.8-19.27,7.25-34.02c8.94-16.38,20.83-27.11,26.56-23.99c0.08,0.04,0.16,0.09,0.24,0.15
						C171.98,184.734,169.08,199.035,161.03,213.785z"/>
				</g>
				<g>
					<path style="fill:#FEAFAB;" d="M182.85,199.765l-6.29,7.29c0,0-35.21,28.05-36.64,29.8c-1.44,1.75-8.6,12.84-8.6,12.84
						s-11.22,0.26-12.38,0c-1.17-0.25-4.91-8.08-4.91-8.08l10.37-10.83l1.32-1.38c0,0,8.12-1.06,11.22-4.16
						c3.09-3.09,32.12-32.13,32.12-32.13c4.89,0.17,8.36,1.86,10.59,3.5C181.84,198.215,182.85,199.765,182.85,199.765z"/>
					<path style="fill:#FB7880;" d="M182.85,199.765l-6.29,7.29c0,0-35.21,28.05-36.64,29.8c-1.44,1.75-8.6,12.84-8.6,12.84
						s-11.22,0.26-12.38,0c-1.17-0.25-4.91-8.08-4.91-8.08l10.37-10.83c5.61-0.53,11.8-0.48,13.44-0.79
						c2.58-0.49,26.1-19.36,26.1-19.36l-2.23,5.71l19.16-17.03l-1.22-2.7C181.84,198.215,182.85,199.765,182.85,199.765z"/>
					<circle style="fill:#FFFFFF;" cx="172.278" cy="198.917" r="0.785"/>
					<path style="fill:#FFFFFF;" d="M170.132,200.344c0.136-0.136,0.357-0.136,0.493,0c0.136,0.136,0.136,0.357,0,0.493
						c-0.136,0.136-0.357,0.136-0.493,0C169.995,200.701,169.995,200.48,170.132,200.344z"/>
				</g>
			</g>
			<g>
				<path style="fill:#FEAFAB;" d="M231.58,243.575c0,0-0.21,0.8-0.75,1.55c-0.35,0.49-0.85,0.96-1.5,1.16
					c-1.03,0.31-9.36,2.1-16.27,3.48c-4.32,0.87-8.08,1.58-9.15,1.68c-2.78,0.26-13.78-2-13.78-2s-1.24,0.04-3.42,0.09
					c-0.65,0.02-1.38,0.03-2.18,0.05c-15.34,0.3-57.98,0.47-73.72-6.14c0,0-1.99-1.73-4.18-4.88c-0.84-1.2-1.72-2.61-2.52-4.22
					c-1.19-2.38-2.23-5.17-2.79-8.32c-1.93-10.84-4.84-59.81-3.87-66.2c0.97-6.38,5.22-9.43,9.29-11.61
					c4.07-2.18,17.61-0.39,19.74,12.78c1.85,11.4-0.23,48.1-0.19,62.47c0.01,2.21,0.06,3.9,0.19,4.88c0,0,3.04,0.16,7.46,0.72
					c5.28,0.67,12.53,1.91,18.92,4.12c10.17,3.51,25.21,7.03,33.78,8.41c1.34,0.22,2.51,0.39,3.49,0.49c0,0,3.353-0.6,6.193-0.47
					c2.84,0.13,5.197,1.96,5.197,1.96H231.58z"/>
				<path style="fill:#FB7880;" d="M203.78,243.575c-0.62,0.89-1.79,2.34-3.36,3.35c-2.42,1.54-9.68,0.85-9.68,0.85l-4.03,1.76
					c2.18-0.05,3.42-0.09,3.42-0.09s4.171,0.857,8.026,1.454c0.001,0,6.554-0.175,10.989-1.203
					c4.436-1.028,10.553-2.365,10.553-2.365v0.001c2.896-0.738,8.978-1.943,11.132-2.207c0.54-0.75,0.75-1.55,0.75-1.55H203.78z"/>
				<g>
					<path style="fill:#F9E9D4;" d="M200.6,229.402c2.039,0,3.698,1.671,3.698,3.725c0,2.054-1.659,3.725-3.698,3.725
						c-2.039,0-3.698-1.671-3.698-3.725C196.902,231.073,198.561,229.402,200.6,229.402L200.6,229.402z M200.6,227.716
						c-2.974,0-5.384,2.423-5.384,5.411c0,2.988,2.41,5.411,5.384,5.411c2.973,0,5.384-2.423,5.384-5.411
						C205.984,230.139,203.573,227.716,200.6,227.716L200.6,227.716z"/>
					<path style="fill:#FFFFFF;" d="M225.65,241.955h-20.78c-5.93-6.38-4.26-17.48-4.26-17.48h29.29
						C229.9,224.475,231.58,235.575,225.65,241.955z"/>
					<path style="fill:#F9E9D4;" d="M211.81,241.955h-6.94c-5.93-6.38-4.26-17.48-4.26-17.48h10.65
						C210.82,227.525,210.09,235.564,211.81,241.955z"/>
					<path style="fill:#F9E9D4;" d="M215.23,241.955h-2c-1.3-5.67-0.62-13.42-0.62-13.42
						C212.85,234.155,214.21,239.025,215.23,241.955z"/>
					<rect x="197.65" y="241.955" style="fill:#FFFFFF;" width="35.22" height="1.62"/>
					<rect x="197.65" y="241.955" style="fill:#F9E9D4;" width="23.69" height="1.62"/>
				</g>
				<circle style="fill:#FFFFFF;" cx="148.064" cy="234.732" r="0.629"/>
				<path style="fill:#FB7880;" d="M186.35,248.155c0.05,0.45-0.74,0.96-1.82,1.43c-15.34,0.3-57.98,0.47-73.72-6.14
					c0,0-1.99-1.73-4.18-4.88l12.64-10.03l4.65,2.75l-3.14,8.22c0,0,24.67,4.26,29.32,3.94
					C154.74,243.115,186.22,246.775,186.35,248.155z"/>
				<path style="fill:#FF5748;" d="M126.29,223.465c-5.98,2.88-15.35,7.5-22.18,10.88c-1.19-2.38-2.23-5.17-2.79-8.32
					c-1.93-10.84-4.84-59.81-3.87-66.2c0.97-6.38,5.22-9.43,9.29-11.61c4.07-2.18,17.61-0.39,19.74,12.78
					C128.33,172.395,126.25,209.094,126.29,223.465z"/>
				<path style="fill:#FFFFFF;" d="M126.484,228.345c0,0-8.516,12.194-15.677,15.097c0,0-3.29-0.581-4.452-1.613
					c-1.161-1.032-9.548-16-9.677-21.548c0,0,21.089-1.937,29.641-0.646C126.319,219.635,128.548,223.119,126.484,228.345z"/>
				<path style="fill:#FEAFAB;" d="M194.226,241.617c0,0,7.161-1.336,9.355-2.11c0,0,7.29,0.903,9.355,0.452
					c0,0,2.323,3.613-5.936,2.807c0,0-3.807,4.15-6.581,4.155C197.645,246.926,194.161,244.114,194.226,241.617z"/>
				<path style="fill:#FFFFFF;" d="M125.193,211.119c0,0,1.313-44.719,0-50.807c-1.313-6.087-3.127-7.118-3.127-7.118
					s3.107,3.996,2.849,11.351c-0.258,7.355-0.625,43.283-0.625,43.283L125.193,211.119z"/>
				<circle style="fill:#FFFFFF;" cx="120.781" cy="189.601" r="1.286"/>
				<circle style="fill:#FFFFFF;" cx="118.716" cy="185.979" r="0.554"/>
				<path style="fill:#FFFFFF;" d="M186.64,241.594c-0.09,0.02-0.19,0.02-0.29,0.02c-5.38-0.06-27.61-5.08-33.03-7.27
					c-5.41-2.19-19.38-5.28-19.38-5.28c5.28,0.67,12.53,1.91,18.92,4.12C163.03,236.695,178.07,240.215,186.64,241.594z"/>
			</g>
			<g>
				<path style="fill:#461930;" d="M192.62,106.164c-0.29,1.47-0.92,3.05-1.73,4.63c-2.88,5.65-8.04,11.2-8.04,11.2v-9.88l9.06-5.52
					L192.62,106.164z"/>
				<path style="fill:#FEAFAB;" d="M183.21,135.835c0.27,1.85,0.3,4.01-0.34,6.77c-1.29,5.55-11.22,15.22-12.64,15.22
					s-12-4.38-15.36-8.25c-0.7-0.81-1.38-1.88-2.01-3.08c-2.4-4.52-4.18-10.73-4.18-10.73c-2.63-7.41-2.58-15.23,0-21.16
					c2.58-5.94,11.09-13.29,18.58-12c7.48,1.29,17.29,10.06,17.29,10.06s-3.1,15.1-2.45,18.2
					C182.42,132.415,182.94,133.965,183.21,135.835z"/>
				<path style="fill:#4098D1;" d="M182.87,142.605c-1.29,5.55-11.22,15.22-12.64,15.22s-12-4.38-15.36-8.25
					c-0.7-0.81-1.38-1.88-2.01-3.08l0.53-3.02c5.71,0.87,6.96-6.58,6.96-6.58s9.3-3.39,13.84-3.68c3.2-0.2,7.03,1.56,9.02,2.62
					C183.48,137.684,183.51,139.844,182.87,142.605z"/>
				<path style="fill:#4098D1;" d="M154.032,145.248c-1.871-1.871-5.29-9.871-5.29-9.871l0.58-0.581
					c1.097,3.484,5.226,9.226,5.226,9.226L154.032,145.248z"/>
				<path style="fill:#4098D1;" d="M148.743,127.579c0,0,5.354,2.896,11.935,10.186l0.903-0.871
					C161.581,136.894,154.615,130.167,148.743,127.579z"/>
				<path style="fill:#461930;" d="M193.16,103.215c0,0.99-0.2,1.98-0.54,2.95c-0.27,0.79-0.63,1.56-1.06,2.3
					c-2.68,4.73-7.83,8.47-7.83,8.47c-0.32-0.24-0.61-0.49-0.88-0.75c-2.07-1.97-2.75-4.36-2.75-4.36
					c-8.81,5.23-17.71,0.59-17.71,0.59L156,99.445c0,0,4.66-4.3,12.22-6.63c0.02,0,0.03-0.01,0.05-0.01c1.98-0.61,4.15-1.08,6.5-1.3
					C186.1,90.445,193.16,96.344,193.16,103.215z"/>
				<path style="fill:#461930;" d="M150.581,127.797c0,0,11.71-9.774,12.968-15.871c1.258-6.097-0.194-17.806-7.355-18.677
					c-7.161-0.871-15.29,5.807-16.161,15.097c-0.871,9.29,3.308,26.515,9.59,30.387c0,0-3.457-5.152-2.12-7.076
					C148.839,129.732,150.581,127.797,150.581,127.797z"/>
				<path style="fill:#FEAFAB;" d="M149.903,128.474c0,0-4.742-4.355-6.387-0.387c-1.645,3.968,2.323,8.613,7.064,8.807
					L149.903,128.474z"/>
				<path style="fill:#461930;" d="M151.839,125.281c0,0-0.484,11.419,2.71,16.645c0,0-6.677-8.659-5.71-15.507L151.839,125.281z"/>
				<path style="fill:#461930;" d="M167.881,126.689c-0.059-0.224-0.281-0.359-0.457-0.493c-0.197-0.149-0.402-0.281-0.63-0.378
					c-0.433-0.184-0.929-0.216-1.394-0.172c-0.781,0.073-1.795,0.405-2.194,1.14c-0.087,0.16,0.108,0.289,0.239,0.185
					c0.287-0.229,0.549-0.467,0.886-0.624c0.343-0.16,0.725-0.248,1.102-0.271c0.399-0.024,0.829-0.001,1.195,0.172
					c0.181,0.085,0.35,0.2,0.506,0.325c0.156,0.125,0.309,0.319,0.516,0.348C167.787,126.938,167.921,126.84,167.881,126.689z"/>
				<path style="fill:#461930;" d="M179.527,126.472c-0.323-0.193-0.681-0.305-1.054-0.342c-0.363-0.036-0.743,0.015-1.086,0.138
					c-0.172,0.062-0.339,0.139-0.495,0.234c-0.163,0.1-0.289,0.244-0.409,0.391c-0.08,0.098,0.025,0.274,0.147,0.19
					c0.249-0.171,0.55-0.326,0.838-0.418c0.305-0.098,0.631-0.133,0.948-0.088c0.297,0.042,0.585,0.151,0.841,0.305
					c0.271,0.163,0.461,0.409,0.718,0.584c0.142,0.096,0.347-0.064,0.293-0.225C180.151,126.895,179.832,126.654,179.527,126.472z"
					/>
				<path style="fill:#461930;" d="M180.353,120.309c-0.155-0.133-0.387-0.153-0.582-0.182c-0.211-0.031-0.424-0.049-0.637-0.052
					c-0.426-0.007-0.851,0.035-1.266,0.131c-0.779,0.18-1.647,0.548-2.148,1.195c-0.068,0.088,0.037,0.222,0.138,0.17
					c0.335-0.173,0.654-0.378,0.996-0.538c0.358-0.167,0.738-0.293,1.124-0.377c0.374-0.081,0.759-0.123,1.142-0.114
					c0.191,0.004,0.381,0.02,0.57,0.046c0.191,0.027,0.392,0.099,0.584,0.057C180.437,120.609,180.476,120.415,180.353,120.309z"/>
				<path style="fill:#461930;" d="M163.52,120.406c0.149-0.139,0.38-0.17,0.574-0.207c0.21-0.04,0.421-0.066,0.634-0.079
					c0.425-0.025,0.852-0.001,1.271,0.077c0.786,0.147,1.669,0.478,2.197,1.103c0.072,0.085-0.028,0.224-0.131,0.176
					c-0.342-0.159-0.669-0.351-1.017-0.496c-0.365-0.152-0.75-0.262-1.139-0.329c-0.378-0.065-0.763-0.09-1.146-0.066
					c-0.19,0.012-0.38,0.036-0.568,0.07c-0.189,0.035-0.387,0.116-0.581,0.082C163.449,120.709,163.401,120.517,163.52,120.406z"/>
				<path style="fill:#FFFFFF;" d="M193.16,103.215c0,0.99-0.2,1.98-0.54,2.95c-0.29,1.47-0.92,3.05-1.73,4.63
					c0.07-0.18,0.38-1.07,0.67-2.33c0.13-0.56,0.26-1.19,0.35-1.87c0.41-2.85,0.32-6.51-1.94-8.99c-4.18-4.57-13.01-6.63-21.7-4.8
					c1.98-0.61,4.15-1.08,6.5-1.3C186.1,90.445,193.16,96.344,193.16,103.215z"/>
				<path style="fill:#FFFFFF;" d="M169.364,95.087c0,0,11.745-1.981,17.12,2.226C186.484,97.313,181.47,94.603,169.364,95.087z"/>
			</g>
		</g>
		<g style="clip-path:url(#SVGID_00000108301350659684053190000012433400488705840514_);">
			<rect x="101.32" y="290.345" style="fill:#87642E;" width="189.06" height="5.81"/>
			<polygon style="fill:#F8EAD5;" points="195.853,296.152 172.032,296.152 174.355,303.256 195.853,303.256 217.35,303.256 
				219.673,296.152 			"/>
			<rect x="192.318" y="299.119" style="fill:#F8EAD5;" width="7.069" height="178.425"/>
		</g>
		<g style="clip-path:url(#SVGID_00000108301350659684053190000012433400488705840514_);">
			<g>
				<polygon style="fill:#C9A773;" points="174.28,258.585 161.48,290.345 181.95,290.345 182.856,288.095 				"/>
				<polygon style="fill:#F8EAD5;" points="184.55,290.345 183.51,290.345 174.28,258.585 161.48,290.345 160.4,290.345 
					174.43,255.525 				"/>
				<polygon style="fill:#FFFFFF;" points="211.5,290.345 184.55,290.345 174.43,255.525 201.38,255.525 				"/>
			</g>
			<g>
				<rect x="214.839" y="278.571" style="fill:#FF5748;" width="6.774" height="11.774"/>
				<path style="fill:#FFFFFF;" d="M221.61,278.575h-6.77c0,0,0.1-3.39,3.39-3.39C221.52,275.185,221.61,278.575,221.61,278.575z"/>
				<g>
					<g>
						<path style="fill:#C9A773;" d="M216.08,278.575h-0.25c0.05-1.19,0.2-1.89,0.2-1.89
							C216.09,277.105,216.1,277.815,216.08,278.575z"/>
						<path style="fill:#C9A773;" d="M217.16,278.575h-0.26c0.05-1.28,0.21-2.04,0.21-2.04
							C217.17,276.975,217.18,277.755,217.16,278.575z"/>
						<path style="fill:#C9A773;" d="M218.34,278.575h-0.26c0-1.75,0.23-2.84,0.23-2.84
							C218.39,276.325,218.38,277.495,218.34,278.575z"/>
						<path style="fill:#C9A773;" d="M218.75,278.575h-0.25c0.06-1.14,0.2-1.81,0.2-1.81
							C218.76,277.165,218.77,277.845,218.75,278.575z"/>
						<path style="fill:#C9A773;" d="M219.46,278.575h-0.26c0.05-1.28,0.21-2.04,0.21-2.04
							C219.47,276.975,219.48,277.755,219.46,278.575z"/>
						<path style="fill:#C9A773;" d="M219.16,278.575h-0.27c0.03-1.52,0.23-2.46,0.23-2.46
							C219.19,276.635,219.19,277.605,219.16,278.575z"/>
						<path style="fill:#C9A773;" d="M219.97,278.575h-0.24c0.06-1.07,0.19-1.7,0.19-1.7
							C219.97,277.255,219.99,277.885,219.97,278.575z"/>
						<path style="fill:#C9A773;" d="M220.71,278.575h-0.24c0.06-1.07,0.19-1.7,0.19-1.7
							C220.71,277.255,220.73,277.885,220.71,278.575z"/>
						<path style="fill:#C9A773;" d="M217.73,278.575h-0.25c0-1.75,0.23-2.84,0.23-2.84
							C217.79,276.325,217.78,277.495,217.73,278.575z"/>
						<path style="fill:#C9A773;" d="M216.87,278.575h-0.25c0.06-1.14,0.2-1.81,0.2-1.81
							C216.88,277.165,216.89,277.845,216.87,278.575z"/>
						<path style="fill:#C9A773;" d="M216.57,278.575h-0.27c0.06-1.33,0.23-2.13,0.23-2.13
							C216.59,276.905,216.6,277.715,216.57,278.575z"/>
					</g>
				</g>
				<rect x="214.669" y="279.559" style="fill:#FFFFFF;" width="7.234" height="0.25"/>
				<rect x="214.669" y="288.801" style="fill:#FFFFFF;" width="7.234" height="0.25"/>
			</g>
		</g>
		<path style="clip-path:url(#SVGID_00000108301350659684053190000012433400488705840514_);fill:#A281DE;" d="M96.235,396.519
			l23.93-8.204c2.943-8.852,3.945-18.705,1.165-29.096l-27.3,10.425l25.93-14.766c-1.259-3.435-2.948-6.919-5.13-10.437
			c-1.661-2.679-3.6-5.278-5.768-7.799L75.356,356.99l28.91-25.441c-6.461-6.326-14.285-12.111-22.648-17.354l-18.191,28.411
			l12.878-31.633c-7.637-4.48-15.56-8.528-23.181-12.143l-4.953,19.947l-0.428-22.454c-16.199-7.419-30.293-12.79-36.174-16.105
			c-0.513,5.977-3.341,18.227-6.072,33.204l22.514,16.004L4.235,320.6c-1.414,8.424-2.693,17.472-3.467,26.602l38.321,8.26
			L0.275,354.32c-0.552,10.351-0.333,20.626,1.196,30.035l42.774-10.933L3.125,392.218C4,395.551,5.08,398.731,6.4,401.712
			c1.647,3.721,3.538,7.027,5.622,9.965l32.148-15.698l-28.75,19.971c7.225,8.152,16.166,12.786,25.327,15.212l24.378-18.212
			l-17.11,19.697c21.532,3.19,42.054-3.809,42.054-3.809s18.703-14.017,27.908-34.862L96.235,396.519z"/>
	</g>
</g>
</svg>
