<?xml version="1.0" standalone="no"?>
<!DOCTYPE svg PUBLIC "-//W3C//DTD SVG 20010904//EN"
 "http://www.w3.org/TR/2001/REC-SVG-20010904/DTD/svg10.dtd">
<svg version="1.0" xmlns="http://www.w3.org/2000/svg"
 width="1920.000000pt" height="1920.000000pt" viewBox="0 0 1920.000000 1920.000000"
 preserveAspectRatio="xMidYMid meet">

<g transform="translate(0.000000,1920.000000) scale(0.100000,-0.100000)"
fill="#FF0000" stroke="none">
<path d="M5904 17025 c-9 -22 9 -53 115 -195 47 -63 107 -147 132 -185 55 -83
184 -311 192 -340 3 -11 24 -64 46 -118 55 -132 70 -195 81 -338 15 -195 -6
-320 -90 -532 -57 -147 -101 -231 -290 -557 -214 -370 -266 -468 -345 -660
-47 -115 -106 -304 -129 -415 -55 -272 -42 -592 35 -825 124 -379 321 -668
663 -975 87 -78 111 -94 143 -95 46 0 37 34 -56 217 -162 321 -239 523 -285
751 -55 269 -58 413 -12 647 48 248 132 451 348 837 112 202 268 489 268 495
0 2 24 57 54 121 122 265 175 488 175 747 1 227 -37 393 -134 590 -117 235
-307 459 -527 621 -264 194 -368 251 -384 209z"/>
<path d="M7050 14124 c-135 -36 -165 -48 -233 -95 -40 -27 -103 -73 -139 -103
-103 -85 -248 -285 -312 -429 -31 -71 -94 -290 -101 -349 -2 -23 -10 -88 -16
-143 -9 -82 -8 -130 6 -260 17 -175 26 -214 86 -384 50 -138 113 -263 203
-399 113 -168 213 -258 232 -208 3 8 -2 48 -10 88 -48 218 -57 258 -67 318 -6
36 -19 143 -29 237 -28 280 -3 556 71 765 60 172 139 310 225 395 157 156 287
205 404 152 88 -40 120 -92 120 -195 0 -76 -44 -243 -86 -325 -52 -104 -8
-142 82 -71 118 94 182 173 245 298 42 86 44 93 47 197 5 129 -14 195 -84 294
-76 106 -171 174 -300 212 -86 25 -258 28 -344 5z"/>
<path d="M6595 11579 c-672 -17 -1020 -31 -1150 -44 -77 -8 -203 -20 -280 -25
-160 -13 -231 -23 -580 -86 -213 -38 -279 -54 -445 -110 -322 -109 -398 -160
-484 -329 -42 -81 -46 -95 -46 -160 0 -38 7 -98 15 -133 8 -34 21 -113 29
-175 8 -61 22 -152 30 -202 26 -159 37 -228 51 -335 17 -121 37 -254 66 -425
10 -66 26 -178 34 -250 8 -71 24 -186 35 -255 12 -69 25 -154 30 -190 22 -156
37 -231 48 -242 24 -24 775 -170 1097 -213 66 -9 185 -25 265 -35 419 -56
1208 -115 1283 -96 17 4 26 15 31 38 15 70 27 148 41 268 27 226 35 284 45
340 6 30 17 114 25 185 8 72 21 168 30 215 8 47 22 144 30 215 9 72 25 184 35
250 11 66 27 174 35 240 8 66 20 150 26 187 18 116 65 104 -449 111 -538 7
-878 31 -1292 88 -690 96 -1098 269 -1040 443 17 53 83 120 147 151 242 115
687 211 1223 265 369 36 478 41 1016 47 l532 5 12 27 c7 14 14 70 18 124 4 79
2 101 -9 108 -15 9 -44 9 -454 -2z"/>
<path d="M7555 11568 c-3 -13 -120 -813 -260 -1778 -141 -965 -259 -1772 -262
-1793 l-6 -38 764 4 c650 3 779 6 862 20 300 51 486 180 575 401 30 75 74 245
101 396 24 134 230 1539 260 1775 58 453 48 578 -58 742 -49 76 -107 125 -206
174 -196 96 -432 118 -1267 119 l-498 0 -5 -22z m996 -609 c30 -7 64 -23 82
-39 29 -26 32 -34 35 -103 5 -91 8 -64 -134 -1042 -121 -832 -148 -986 -192
-1075 -23 -47 -35 -59 -82 -82 -37 -19 -79 -30 -128 -34 l-73 -7 5 24 c3 13
80 537 171 1164 91 627 168 1155 171 1173 6 30 9 32 50 32 23 0 66 -5 95 -11z"/>
<path d="M10095 11568 c-3 -13 -120 -813 -260 -1778 -141 -965 -259 -1772
-262 -1793 l-6 -37 819 2 819 3 47 320 c26 176 49 339 53 363 l6 42 -345 0
c-190 0 -346 3 -346 8 0 4 25 175 55 381 30 206 55 380 55 388 0 10 59 13 297
15 l297 3 48 325 c26 179 47 333 48 343 0 16 -20 17 -290 17 -225 0 -290 3
-290 13 -1 6 21 162 47 345 l48 332 315 0 315 0 49 333 c26 182 50 347 53 365
l5 32 -786 0 -786 0 -5 -22z"/>
<path d="M12005 11568 c-3 -13 -120 -813 -260 -1778 -141 -965 -259 -1772
-262 -1792 l-6 -38 760 0 759 0 48 333 c27 182 51 347 53 365 l6 32 -287 0
c-157 0 -286 2 -286 5 0 3 95 653 210 1445 116 792 210 1442 210 1445 0 3
-211 5 -470 5 l-470 0 -5 -22z"/>
<path d="M13755 11568 c-3 -13 -120 -813 -260 -1778 -141 -965 -259 -1772
-262 -1792 l-6 -38 472 0 471 0 5 23 c4 21 525 3590 525 3602 0 3 -211 5 -470
5 l-470 0 -5 -22z"/>
<path d="M5865 11099 c-398 -19 -551 -30 -694 -49 -458 -61 -645 -138 -577
-236 59 -83 469 -161 1081 -206 187 -13 1173 -18 1217 -5 38 10 45 27 63 158
33 234 39 309 27 321 -7 7 -47 16 -90 20 -101 9 -822 7 -1027 -3z"/>
<path d="M3990 8263 c0 -12 48 -353 70 -498 11 -71 31 -209 45 -305 15 -96 35
-231 45 -300 11 -69 22 -147 26 -175 3 -27 12 -90 21 -140 8 -49 21 -137 28
-195 20 -152 70 -495 94 -640 11 -69 25 -170 31 -225 5 -55 17 -134 25 -175
16 -86 44 -263 56 -364 4 -39 15 -106 23 -150 22 -120 56 -335 86 -541 53
-367 71 -421 163 -509 64 -60 167 -111 255 -126 45 -7 224 -10 544 -8 463 3
478 4 498 23 20 20 34 87 59 275 20 146 32 233 41 285 5 28 14 104 20 170 6
66 15 143 21 170 5 28 17 100 24 160 8 61 24 171 35 245 12 74 27 182 34 240
8 58 19 128 24 155 6 28 20 127 32 220 12 94 28 199 35 235 8 36 19 108 25
160 6 52 15 133 21 180 5 47 14 123 20 170 5 47 14 112 20 145 13 70 39 261
95 685 9 69 25 179 36 245 28 173 35 295 17 295 -390 5 -1170 63 -1609 121
-317 41 -722 117 -876 164 -54 16 -84 19 -84 8z"/>
<path d="M14320 7624 c-384 -45 -666 -191 -813 -420 -82 -128 -133 -283 -178
-539 -18 -102 -23 -166 -23 -300 1 -156 3 -177 28 -260 68 -222 116 -273 601
-633 237 -176 346 -275 370 -334 37 -94 24 -359 -26 -507 -30 -90 -95 -156
-161 -166 -97 -15 -151 16 -169 94 -11 48 -1 152 41 432 16 111 30 210 30 220
0 18 -16 19 -435 19 l-435 0 -5 -22 c-2 -13 -13 -86 -24 -163 -60 -424 -51
-654 31 -807 41 -77 96 -138 172 -192 198 -141 449 -204 761 -193 243 9 432
55 626 152 323 161 434 351 516 885 24 158 24 474 0 580 -53 234 -222 410
-702 730 -285 190 -324 245 -312 440 7 109 37 237 68 286 11 19 36 46 55 61
67 51 181 38 204 -23 16 -42 11 -153 -15 -334 -14 -95 -25 -174 -25 -176 0 -2
197 -4 438 -4 l438 0 24 173 c34 240 35 482 3 582 -62 195 -285 344 -603 401
-81 15 -404 27 -480 18z"/>
<path d="M6965 7538 c-5 -24 -525 -3585 -525 -3600 0 -4 211 -8 469 -8 439 0
470 1 475 18 2 9 51 338 108 730 l103 712 178 0 c293 0 479 31 628 105 260
128 340 289 423 855 56 380 69 510 63 650 -6 133 -19 189 -64 271 -53 99 -185
191 -333 233 -157 45 -227 49 -887 53 l-632 5 -6 -24z m1038 -621 c46 -20 66
-47 79 -108 9 -47 6 -86 -25 -304 -20 -138 -46 -281 -57 -318 -38 -124 -114
-177 -252 -177 -46 0 -58 3 -58 16 0 9 29 216 65 460 36 245 65 447 65 451 0
10 148 -6 183 -20z"/>
<path d="M9275 7538 c-3 -13 -120 -813 -260 -1778 -141 -965 -259 -1772 -262
-1792 l-6 -38 760 0 759 0 48 333 c27 182 51 347 53 365 l6 32 -287 0 c-157 0
-286 2 -286 5 0 3 95 653 210 1445 116 792 210 1442 210 1445 0 3 -211 5 -470
5 l-470 0 -5 -22z"/>
<path d="M10952 7138 c-34 -233 -113 -781 -177 -1218 -176 -1205 -190 -1356
-145 -1518 77 -276 288 -445 653 -524 134 -29 442 -32 582 -6 284 53 506 180
672 383 134 164 185 297 242 635 27 153 391 2636 391 2661 0 5 -182 9 -470 9
l-470 0 -5 -22 c-2 -13 -95 -644 -205 -1403 -111 -759 -210 -1420 -220 -1469
-25 -111 -46 -154 -89 -183 -47 -32 -101 -30 -141 4 l-32 27 4 120 c4 84 67
544 206 1496 111 756 204 1387 206 1403 l6 27 -473 0 -473 0 -62 -422z"/>
</g>
</svg>
